<svg version="1.1" xmlns="http://www.w3.org/2000/svg" xmlns:xlink="http://www.w3.org/1999/xlink" width="21" height="21" viewBox="0,0,256,256"><g fill="#192bfc" fill-rule="nonzero" stroke="none" stroke-width="1" stroke-linecap="butt" stroke-linejoin="miter" stroke-miterlimit="10" stroke-dasharray="" stroke-dashoffset="0" font-family="none" font-weight="none" font-size="none" text-anchor="none" style="mix-blend-mode: normal"><g transform="scale(10.66667,10.66667)"><path d="M12,0c-6.62891,0 -12,5.37109 -12,12c0,6.62891 5.37109,12 12,12c6.62891,0 12,-5.37109 12,-12c0,-6.62891 -5.37109,-12 -12,-12zM12,2c5.52344,0 10,4.47656 10,10c0,5.52344 -4.47656,10 -10,10c-5.52344,0 -10,-4.47656 -10,-10c0,-5.52344 4.47656,-10 10,-10zM10.9375,3.875l-0.4375,8.1875l0.09375,0.875l6.15625,5.4375l0.96875,-1l-5.09375,-5.40625l-0.4375,-8.09375z"></path></g></g></svg>