<svg version="1.1" xmlns="http://www.w3.org/2000/svg" xmlns:xlink="http://www.w3.org/1999/xlink" width="24px" height="24px" viewBox="0,0,256,256"><g fill="#fcc419" fill-rule="nonzero" stroke="none" stroke-width="1" stroke-linecap="butt" stroke-linejoin="miter" stroke-miterlimit="10" stroke-dasharray="" stroke-dashoffset="0" font-family="none" font-weight="none" font-size="none" text-anchor="none" style="mix-blend-mode: normal"><g transform="scale(8,8)"><path d="M12,2c-3.85547,0 -7,3.14453 -7,7c0,2.41016 1.23047,4.55078 3.09375,5.8125c-3.56641,1.53125 -6.09375,5.07031 -6.09375,9.1875h2c0,-4.42969 3.57031,-8 8,-8c1.375,0 2.65625,0.35938 3.78125,0.96875c-1.10937,1.375 -1.78125,3.13281 -1.78125,5.03125c0,4.40625 3.59375,8 8,8c4.40625,0 8,-3.59375 8,-8c0,-4.40625 -3.59375,-8 -8,-8c-1.74609,0 -3.37109,0.57422 -4.6875,1.53125c-0.44141,-0.27734 -0.92187,-0.51172 -1.40625,-0.71875c1.86328,-1.26172 3.09375,-3.40234 3.09375,-5.8125c0,-3.85547 -3.14453,-7 -7,-7zM12,4c2.77344,0 5,2.22656 5,5c0,2.77344 -2.22656,5 -5,5c-2.77344,0 -5,-2.22656 -5,-5c0,-2.77344 2.22656,-5 5,-5zM22,16c3.32422,0 6,2.67578 6,6c0,3.32422 -2.67578,6 -6,6c-3.32422,0 -6,-2.67578 -6,-6c0,-3.32422 2.67578,-6 6,-6zM21,18v3h-3v2h3v3h2v-3h3v-2h-3v-3z"></path></g></g></svg>