<svg version="1.1" xmlns="http://www.w3.org/2000/svg" xmlns:xlink="http://www.w3.org/1999/xlink" width="23" height="23" viewBox="0,0,256,256"><g fill="#fcea19" fill-rule="nonzero" stroke="none" stroke-width="1" stroke-linecap="butt" stroke-linejoin="miter" stroke-miterlimit="10" stroke-dasharray="" stroke-dashoffset="0" font-family="none" font-weight="none" font-size="none" text-anchor="none" style="mix-blend-mode: normal"><g transform="scale(9.84615,9.84615)"><path d="M13.03125,1.15625c-0.07422,0.00391 -0.14844,0.01172 -0.21875,0.03125c-0.31641,0.0625 -0.58203,0.26953 -0.71875,0.5625l-3.25,6.625l-7.375,1.09375c-0.36328,0.06641 -0.66406,0.32813 -0.77344,0.68359c-0.11328,0.35547 -0.01953,0.74219 0.24219,1.00391l5.28125,5.1875l-1.21875,7.3125c-0.0625,0.37109 0.08594,0.75 0.39063,0.97656c0.30469,0.22266 0.71094,0.25781 1.04688,0.08594l6.5625,-3.46875l6.5625,3.46875c0.33594,0.17188 0.74219,0.13672 1.04688,-0.08594c0.30469,-0.22656 0.45313,-0.60547 0.39063,-0.97656l-1.21875,-7.3125l5.28125,-5.1875c0.26172,-0.26172 0.35547,-0.64844 0.24219,-1.00391c-0.10937,-0.35547 -0.41016,-0.61719 -0.77344,-0.68359l-7.375,-1.09375l-3.25,-6.625c-0.15625,-0.34766 -0.49219,-0.57812 -0.875,-0.59375zM13,4.46875l2.625,5.28125c0.14844,0.28906 0.42969,0.48828 0.75,0.53125l5.84375,0.875l-4.21875,4.125c-0.24219,0.22266 -0.35937,0.55078 -0.3125,0.875l1,5.84375l-5.21875,-2.75c-0.29297,-0.15625 -0.64453,-0.15625 -0.9375,0l-5.21875,2.75l1,-5.84375c0.04688,-0.32422 -0.07031,-0.65234 -0.3125,-0.875l-4.21875,-4.125l5.84375,-0.875c0.32031,-0.04297 0.60156,-0.24219 0.75,-0.53125z"></path></g></g></svg>