<svg version="1.1" xmlns="http://www.w3.org/2000/svg" xmlns:xlink="http://www.w3.org/1999/xlink" width="24" height="24" viewBox="0,0,256,256"><g fill="#00CAFF" fill-rule="nonzero" stroke="none" stroke-width="3" stroke-linecap="butt" stroke-linejoin="miter" stroke-miterlimit="10" stroke-dasharray="" stroke-dashoffset="0" font-family="none" font-weight="none" font-size="none" text-anchor="none" style="mix-blend-mode: normal"><g transform="scale(0.5,0.5)"><path d="M255.67383,34.42969c-1.80167,0.05866 -3.55435,0.60106 -5.07422,1.57031l-163,104c-2.90727,1.80523 -4.68229,4.97829 -4.69922,8.40039v90.19922c0.08198,74.30662 36.1114,143.98144 96.69922,187l70.5,50c3.49413,2.39995 8.10548,2.39995 11.59961,0l70.5,-50c60.58856,-43.01813 96.61874,-112.69303 96.70117,-187v-90.19922c0.04264,-3.41215 -1.70189,-6.59823 -4.59961,-8.40039l-162.90039,-104c-1.70699,-1.08856 -3.70308,-1.63592 -5.72656,-1.57031zM256,56.40039l153,97.59961v84.69922c-0.06976,67.83843 -32.9732,131.44666 -88.30078,170.70117l-64.69922,45.90039l-64.69922,-45.90039c-55.32758,-39.25451 -88.23102,-102.86274 -88.30078,-170.70117v-84.69922zM316.39844,208.57617c-2.49529,0.03814 -4.88563,1.0103 -6.69922,2.72461l-72.09961,68.09961l-34.79883,-35.59961c-2.47609,-2.58514 -6.14791,-3.64464 -9.62057,-2.776c-3.47267,0.86864 -6.21324,3.53211 -7.1806,6.97858c-0.96736,3.44647 -0.01305,7.14703 2.5004,9.69586l41.5,42.60156c3.85266,3.87999 10.08602,4.01211 14.09961,0.29883l79.30078,-74.79883c2.99115,-2.82482 3.94095,-7.19638 2.39161,-11.00769c-1.54933,-3.81132 -5.27986,-6.28028 -9.39356,-6.21692z"></path></g></g></svg>