<svg version="1.1" xmlns="http://www.w3.org/2000/svg" xmlns:xlink="http://www.w3.org/1999/xlink" width="24px" height="24px" viewBox="0,0,256,256"><g fill="#1AB65C" fill-rule="nonzero" stroke="none" stroke-width="2" stroke-linecap="butt" stroke-linejoin="miter" stroke-miterlimit="10" stroke-dasharray="" stroke-dashoffset="0" font-family="none" font-weight="none" font-size="none" text-anchor="none" style="mix-blend-mode: normal"><g transform="scale(8,8)"><path d="M4,4v3.65625l-3,4v0.34375c0,1.64453 1.35547,3 3,3v13h16v-9h2v9h6v-13c1.64453,0 3,-1.35547 3,-3v-0.34375l-3,-4v-3.65625zM6,6h20v1h-20zM5.5,9h21l2.40625,3.21875c-0.10937,0.43359 -0.4375,0.78125 -0.90625,0.78125c-0.55469,0 -1,-0.44531 -1,-1h-2c0,0.55469 -0.44531,1 -1,1c-0.55469,0 -1,-0.44531 -1,-1h-2c0,0.55469 -0.44531,1 -1,1c-0.55469,0 -1,-0.44531 -1,-1h-2c0,0.55469 -0.44531,1 -1,1c-0.55469,0 -1,-0.44531 -1,-1h-2c0,0.55469 -0.44531,1 -1,1c-0.55469,0 -1,-0.44531 -1,-1h-2c0,0.55469 -0.44531,1 -1,1c-0.55469,0 -1,-0.44531 -1,-1h-2c0,0.55469 -0.44531,1 -1,1c-0.46875,0 -0.79687,-0.34766 -0.90625,-0.78125zM6,14.21875c0.53125,0.48047 1.23438,0.78125 2,0.78125c0.76563,0 1.46875,-0.30078 2,-0.78125c0.53125,0.48047 1.23438,0.78125 2,0.78125c0.76563,0 1.46875,-0.30078 2,-0.78125c0.53125,0.48047 1.23438,0.78125 2,0.78125c0.76563,0 1.46875,-0.30078 2,-0.78125c0.53125,0.48047 1.23438,0.78125 2,0.78125c0.76563,0 1.46875,-0.30078 2,-0.78125c0.53125,0.48047 1.23438,0.78125 2,0.78125c0.76563,0 1.46875,-0.30078 2,-0.78125v11.78125h-2v-9h-6v9h-12zM8,17v7h8v-7zM10,19h4v3h-4z"></path></g></g></svg>